<svg xmlns="http://www.w3.org/2000/svg" viewBox="0 0 24 24" fill="#222c30" width="48px" height="48px"><path d="M19 3h-4.18C14.4-1.84 13.3 1 12 1s-1.4 1.84-1.82 2H5c-1.1 0-2 .9-2 2v14c0 1.1.9 2 2 2h14c1.1 0 2-.9 2-2V5c0-1.1-.9-2-2-2zm-7 0c.55 0 1 .45 1 1s-.45 1-1 1-1-.45-1-1 .45-1 1-1zm1 14h-2v-2h2v2zm2.07-7.75l-.9.95c-.59.62-.82 1.18-.86 1.95h-1.6v-.5c0-.66.24-1.26.7-1.75l1.24-1.26c.36-.36.58-.86.58-1.41 0-1.1-.9-2-2-2s-2 .9-2 2H9v-.15c.3-1.72 1.73-3.04 3.52-3.04 2 0 3.48 1.51 3.48 3.58 0 1.08-.47 1.76-1.14 2.42z"/></svg>
